<svg width="50" height="78" viewBox="0 0 50 78" fill="none" xmlns="http://www.w3.org/2000/svg">
<mask id="mask0_7755_52" style="mask-type:luminance" maskUnits="userSpaceOnUse" x="5" y="0" width="40" height="40">
<path fill-rule="evenodd" clip-rule="evenodd" d="M5 0H45V40H5V0Z" fill="white"/>
</mask>
<g mask="url(#mask0_7755_52)">
<path fill-rule="evenodd" clip-rule="evenodd" d="M38.3169 18.613C38.1414 17.6617 37.3854 16.9664 36.4809 16.8037C35.6169 14.0701 34.2467 11.9773 32.3641 10.5319C30.5004 9.10063 28.2061 8.43294 25.4784 8.54028C25.2624 7.35884 24.2296 6.46094 22.9876 6.46094C21.5836 6.46094 20.4496 7.5958 20.4496 8.99261C20.4496 9.16139 20.4705 9.32341 20.4975 9.48544C19.1205 9.97827 17.8914 10.6669 16.812 11.5513C15.1306 12.9218 13.9433 14.6305 13.2473 16.6828C12.7478 18.1681 12.5453 19.7539 12.6466 21.4356C11.9108 21.9278 11.5058 22.8324 11.6813 23.7506C11.8643 24.6552 12.5521 25.3303 13.3958 25.5329C13.356 25.3911 13.3216 25.2493 13.2953 25.1008C13.3351 25.2493 13.383 25.3911 13.4296 25.5403C13.8413 26.7683 14.4083 27.8687 15.1171 28.8618C15.1576 28.9226 15.2048 28.9827 15.2521 29.0502C15.2993 29.1116 15.3466 29.1656 15.3871 29.219C15.4546 29.3142 15.5288 29.408 15.6038 29.4958C16.9666 31.1498 18.6879 32.2982 20.7669 32.9591C22.8391 33.6207 25.1341 33.7152 27.6586 33.2501C29.7984 32.8518 31.6682 32.1294 33.2686 31.0755C34.8474 30.0433 36.1164 28.7538 37.0749 27.1869C37.1019 27.1471 37.0891 27.093 37.0479 27.066L32.9102 24.1826C32.8703 24.1556 32.8089 24.1631 32.7819 24.2096C32.1143 25.1548 31.3172 25.9386 30.3789 26.5455C29.4204 27.1673 28.3748 27.5852 27.2476 27.7952C25.7018 28.0848 24.2971 27.9032 23.0416 27.2618C22.5691 27.0249 22.1439 26.7217 21.7524 26.3632C21.6788 26.3032 21.5904 26.2221 21.5026 26.1276C21.4621 26.0804 21.4216 26.0257 21.3744 25.9717C20.9498 25.5329 20.5914 24.9995 20.2944 24.3987C20.2674 24.3514 20.2471 24.3048 20.2201 24.2569C20.2471 24.2981 20.2748 24.3447 20.3079 24.3987L36.5214 21.2729C37.7567 21.0373 38.5539 19.8484 38.3169 18.613ZM45 20.0036C45 31.0484 36.0501 40.0004 25.0003 40.0004C13.9566 40.0004 5 31.0484 5 20.0036C5 8.95131 13.9566 0 25.0003 0C36.0501 0 45 8.95131 45 20.0036ZM30.1438 17.8827L19.2756 19.9688C19.2688 18.3749 19.6671 17.0314 20.4636 15.9377C21.2878 14.8177 22.4346 14.1224 23.9196 13.8449C25.4924 13.5553 26.8424 13.7976 27.9771 14.5679C29.0564 15.3099 29.7793 16.4171 30.1438 17.8827Z" fill="white"/>
</g>
<path d="M5.75675 59L1.77875 49.9H3.61175L7.16075 58.129H6.10775L9.69575 49.9H11.3858L7.42075 59H5.75675ZM14.9452 59.091C14.1739 59.091 13.4979 58.9393 12.9172 58.636C12.3452 58.324 11.8989 57.8993 11.5782 57.362C11.2662 56.8247 11.1102 56.2137 11.1102 55.529C11.1102 54.8357 11.2619 54.2247 11.5652 53.696C11.8772 53.1587 12.3019 52.7383 12.8392 52.435C13.3852 52.1317 14.0049 51.98 14.6982 51.98C15.3742 51.98 15.9765 52.1273 16.5052 52.422C17.0339 52.7167 17.4499 53.1327 17.7532 53.67C18.0565 54.2073 18.2082 54.84 18.2082 55.568C18.2082 55.6373 18.2039 55.7153 18.1952 55.802C18.1952 55.8887 18.1909 55.971 18.1822 56.049H12.3972V54.97H17.3242L16.6872 55.308C16.6959 54.9093 16.6135 54.5583 16.4402 54.255C16.2669 53.9517 16.0285 53.7133 15.7252 53.54C15.4305 53.3667 15.0882 53.28 14.6982 53.28C14.2995 53.28 13.9485 53.3667 13.6452 53.54C13.3505 53.7133 13.1165 53.956 12.9432 54.268C12.7785 54.5713 12.6962 54.931 12.6962 55.347V55.607C12.6962 56.023 12.7915 56.3913 12.9822 56.712C13.1729 57.0327 13.4415 57.2797 13.7882 57.453C14.1349 57.6263 14.5335 57.713 14.9842 57.713C15.3742 57.713 15.7252 57.6523 16.0372 57.531C16.3492 57.4097 16.6265 57.219 16.8692 56.959L17.7402 57.96C17.4282 58.324 17.0339 58.6057 16.5572 58.805C16.0892 58.9957 15.5519 59.091 14.9452 59.091ZM19.7691 59V52.058H21.3161V53.969L21.1341 53.41C21.3421 52.942 21.6671 52.5867 22.1091 52.344C22.5598 52.1013 23.1188 51.98 23.7861 51.98V53.527C23.7168 53.5097 23.6518 53.501 23.5911 53.501C23.5305 53.4923 23.4698 53.488 23.4091 53.488C22.7938 53.488 22.3041 53.67 21.9401 54.034C21.5761 54.3893 21.3941 54.9223 21.3941 55.633V59H19.7691ZM28.1969 56.933V55.763L32.6819 49.9H34.4889L30.0689 55.763L29.2239 55.503H36.4389V56.933H28.1969ZM33.1889 59V56.933L33.2409 55.503V53.67H34.8269V59H33.1889ZM38.418 59.091C38.1234 59.091 37.872 58.9913 37.664 58.792C37.456 58.584 37.352 58.324 37.352 58.012C37.352 57.6827 37.456 57.4227 37.664 57.232C37.872 57.0327 38.1234 56.933 38.418 56.933C38.7127 56.933 38.964 57.0327 39.172 57.232C39.38 57.4227 39.484 57.6827 39.484 58.012C39.484 58.324 39.38 58.584 39.172 58.792C38.964 58.9913 38.7127 59.091 38.418 59.091ZM43.6459 49.77C44.4779 49.77 45.1842 49.9477 45.7649 50.303C46.3542 50.6497 46.8049 51.1567 47.1169 51.824C47.4289 52.4913 47.5849 53.3147 47.5849 54.294C47.5849 55.334 47.3942 56.2137 47.0129 56.933C46.6402 57.6523 46.1202 58.1983 45.4529 58.571C44.7855 58.9437 44.0099 59.13 43.1259 59.13C42.6665 59.13 42.2289 59.0823 41.8129 58.987C41.3969 58.8917 41.0372 58.7443 40.7339 58.545L41.3579 57.271C41.6092 57.4357 41.8822 57.5527 42.1769 57.622C42.4715 57.6827 42.7749 57.713 43.0869 57.713C43.9449 57.713 44.6252 57.4487 45.1279 56.92C45.6305 56.3913 45.8819 55.6113 45.8819 54.58C45.8819 54.4153 45.8775 54.2247 45.8689 54.008C45.8602 53.7827 45.8299 53.5573 45.7779 53.332L46.2979 53.904C46.1505 54.2593 45.9382 54.5583 45.6609 54.801C45.3835 55.035 45.0585 55.2127 44.6859 55.334C44.3132 55.4553 43.9015 55.516 43.4509 55.516C42.8615 55.516 42.3285 55.4033 41.8519 55.178C41.3839 54.944 41.0112 54.619 40.7339 54.203C40.4565 53.7783 40.3179 53.2843 40.3179 52.721C40.3179 52.1143 40.4652 51.5943 40.7599 51.161C41.0545 50.719 41.4532 50.3767 41.9559 50.134C42.4672 49.8913 43.0305 49.77 43.6459 49.77ZM43.7369 51.096C43.3902 51.096 43.0825 51.161 42.8139 51.291C42.5452 51.4123 42.3329 51.59 42.1769 51.824C42.0295 52.0493 41.9559 52.3223 41.9559 52.643C41.9559 53.1197 42.1205 53.4967 42.4499 53.774C42.7792 54.0513 43.2212 54.19 43.7759 54.19C44.1399 54.19 44.4605 54.125 44.7379 53.995C45.0152 53.8563 45.2319 53.67 45.3879 53.436C45.5439 53.1933 45.6219 52.9247 45.6219 52.63C45.6219 52.344 45.5482 52.0883 45.4009 51.863C45.2535 51.629 45.0412 51.4427 44.7639 51.304C44.4865 51.1653 44.1442 51.096 43.7369 51.096ZM3.14009 70.086H7.67709V71.516H3.14009V70.086ZM3.28309 75H1.59309V65.9H8.23609V67.317H3.28309V75ZM9.87044 75V65.9H11.5604V73.57H16.3184V75H9.87044ZM23.4554 75.13C22.8141 75.13 22.1858 75.039 21.5704 74.857C20.9638 74.6663 20.4524 74.4063 20.0364 74.077L20.7644 72.764C21.0938 73.0327 21.4924 73.2493 21.9604 73.414C22.4284 73.5787 22.9181 73.661 23.4294 73.661C24.0361 73.661 24.5084 73.5397 24.8464 73.297C25.1844 73.0457 25.3534 72.7077 25.3534 72.283C25.3534 71.867 25.1974 71.5377 24.8854 71.295C24.5734 71.0523 24.0708 70.931 23.3774 70.931H22.5454V69.774L25.1454 66.68L25.3664 67.317H20.4784V65.9H26.6794V67.031L24.0794 70.125L23.1954 69.605H23.7024C24.8204 69.605 25.6568 69.8563 26.2114 70.359C26.7748 70.853 27.0564 71.49 27.0564 72.27C27.0564 72.7813 26.9264 73.2537 26.6664 73.687C26.4064 74.1203 26.0078 74.4713 25.4704 74.74C24.9418 75 24.2701 75.13 23.4554 75.13ZM29.1758 75.091C28.8812 75.091 28.6298 74.9913 28.4218 74.792C28.2138 74.584 28.1098 74.324 28.1098 74.012C28.1098 73.6827 28.2138 73.4227 28.4218 73.232C28.6298 73.0327 28.8812 72.933 29.1758 72.933C29.4705 72.933 29.7218 73.0327 29.9298 73.232C30.1378 73.4227 30.2418 73.6827 30.2418 74.012C30.2418 74.324 30.1378 74.584 29.9298 74.792C29.7218 74.9913 29.4705 75.091 29.1758 75.091ZM34.3226 75.13C33.6813 75.13 33.053 75.039 32.4376 74.857C31.831 74.6663 31.3196 74.4063 30.9036 74.077L31.6316 72.764C31.961 73.0327 32.3596 73.2493 32.8276 73.414C33.2956 73.5787 33.7853 73.661 34.2966 73.661C34.9033 73.661 35.3756 73.5397 35.7136 73.297C36.0516 73.0457 36.2206 72.7077 36.2206 72.283C36.2206 71.867 36.0646 71.5377 35.7526 71.295C35.4406 71.0523 34.938 70.931 34.2446 70.931H33.4126V69.774L36.0126 66.68L36.2336 67.317H31.3456V65.9H37.5466V67.031L34.9466 70.125L34.0626 69.605H34.5696C35.6876 69.605 36.524 69.8563 37.0786 70.359C37.642 70.853 37.9236 71.49 37.9236 72.27C37.9236 72.7813 37.7936 73.2537 37.5336 73.687C37.2736 74.1203 36.875 74.4713 36.3376 74.74C35.809 75 35.1373 75.13 34.3226 75.13ZM40.043 75.091C39.7484 75.091 39.497 74.9913 39.289 74.792C39.081 74.584 38.977 74.324 38.977 74.012C38.977 73.6827 39.081 73.4227 39.289 73.232C39.497 73.0327 39.7484 72.933 40.043 72.933C40.3377 72.933 40.589 73.0327 40.797 73.232C41.005 73.4227 41.109 73.6827 41.109 74.012C41.109 74.324 41.005 74.584 40.797 74.792C40.589 74.9913 40.3377 75.091 40.043 75.091ZM45.9895 75.13C45.1662 75.13 44.4598 74.9567 43.8705 74.61C43.2812 74.2547 42.8305 73.7433 42.5185 73.076C42.2065 72.4087 42.0505 71.5853 42.0505 70.606C42.0505 69.566 42.2368 68.6863 42.6095 67.967C42.9908 67.2477 43.5152 66.7017 44.1825 66.329C44.8585 65.9563 45.6342 65.77 46.5095 65.77C46.9688 65.77 47.4065 65.8177 47.8225 65.913C48.2472 66.0083 48.6068 66.1557 48.9015 66.355L48.2775 67.629C48.0262 67.4643 47.7532 67.3517 47.4585 67.291C47.1725 67.2217 46.8692 67.187 46.5485 67.187C45.6905 67.187 45.0102 67.4513 44.5075 67.98C44.0048 68.5087 43.7535 69.2887 43.7535 70.32C43.7535 70.4847 43.7578 70.6797 43.7665 70.905C43.7752 71.1217 43.8055 71.3427 43.8575 71.568L43.3375 70.996C43.4935 70.6407 43.7058 70.346 43.9745 70.112C44.2518 69.8693 44.5768 69.6873 44.9495 69.566C45.3308 69.4447 45.7425 69.384 46.1845 69.384C46.7825 69.384 47.3155 69.501 47.7835 69.735C48.2515 69.9603 48.6242 70.2853 48.9015 70.71C49.1788 71.126 49.3175 71.6157 49.3175 72.179C49.3175 72.777 49.1702 73.297 48.8755 73.739C48.5808 74.181 48.1822 74.5233 47.6795 74.766C47.1768 75.0087 46.6135 75.13 45.9895 75.13ZM45.8985 73.804C46.2452 73.804 46.5528 73.7433 46.8215 73.622C47.0902 73.492 47.2982 73.31 47.4455 73.076C47.6015 72.842 47.6795 72.569 47.6795 72.257C47.6795 71.7803 47.5148 71.4033 47.1855 71.126C46.8562 70.8487 46.4142 70.71 45.8595 70.71C45.4955 70.71 45.1748 70.7793 44.8975 70.918C44.6288 71.048 44.4122 71.23 44.2475 71.464C44.0915 71.698 44.0135 71.9667 44.0135 72.27C44.0135 72.5473 44.0872 72.803 44.2345 73.037C44.3818 73.271 44.5942 73.4573 44.8715 73.596C45.1575 73.7347 45.4998 73.804 45.8985 73.804Z" fill="white"/>
</svg>
